HIERARCHY
ROOT Hips
{
	OFFSET -0.001795 -0.223333 0.028219
	CHANNELS 6 Xposition Yposition Zposition Zrotation Yrotation Xrotation 
	JOINT LeftUpLeg
	{
		OFFSET 0.069520 -0.091406 -0.006815
		CHANNELS 3 Zrotation Yrotation Xrotation
		JOINT LeftLeg
		{
			OFFSET 0.034277 -0.375199 -0.004496
			CHANNELS 3 Zrotation Yrotation Xrotation
			JOINT LeftFoot
			{
				OFFSET -0.013596 -0.397961 -0.043693
				CHANNELS 3 Zrotation Yrotation Xrotation
				JOINT LeftToe
				{
					OFFSET 0.026358 -0.055791 0.119288
					CHANNELS 3 Zrotation Yrotation Xrotation
					End Site
					{
						OFFSET 0.000000 0.000000 0.000000
					}
				}
			}
		}
	}
	JOINT RightUpLeg
	{
		OFFSET -0.067670 -0.090522 -0.004320
		CHANNELS 3 Zrotation Yrotation Xrotation
		JOINT RightLeg
		{
			OFFSET -0.038290 -0.382569 -0.008850
			CHANNELS 3 Zrotation Yrotation Xrotation
			JOINT RightFoot
			{
				OFFSET 0.015774 -0.398415 -0.042312
				CHANNELS 3 Zrotation Yrotation Xrotation
				JOINT RightToe
				{
					OFFSET -0.025372 -0.048144 0.123348
					CHANNELS 3 Zrotation Yrotation Xrotation
					End Site
					{
						OFFSET 0.000000 0.000000 0.000000
					}
				}
			}
		}
	}
	JOINT Spine
	{
		OFFSET -0.002533 0.108963 -0.026696
		CHANNELS 3 Zrotation Yrotation Xrotation
		JOINT Spine1
		{
			OFFSET 0.005487 0.135180 0.001092
			CHANNELS 3 Zrotation Yrotation Xrotation
			JOINT Spine2
			{
				OFFSET 0.001457 0.052922 0.025425
				CHANNELS 3 Zrotation Yrotation Xrotation
				JOINT Neck
				{
					OFFSET -0.002778 0.213870 -0.042857
					CHANNELS 3 Zrotation Yrotation Xrotation
					JOINT Head
					{
						OFFSET 0.005152 0.064970 0.051349
						CHANNELS 3 Zrotation Yrotation Xrotation
						End Site
						{
							OFFSET 0.000000 0.000000 0.000000
						}
					}
				}
				JOINT LeftShoulder
				{
					OFFSET 0.078845 0.121749 -0.034090
					CHANNELS 3 Zrotation Yrotation Xrotation
					JOINT LeftArm
					{
						OFFSET 0.090977 0.030469 -0.008868
						CHANNELS 3 Zrotation Yrotation Xrotation
						JOINT LeftForeArm
						{
							OFFSET 0.259612 -0.012772 -0.027456
							CHANNELS 3 Zrotation Yrotation Xrotation
							JOINT LeftHand
							{
								OFFSET 0.249234 0.008986 -0.001171
								CHANNELS 3 Zrotation Yrotation Xrotation
								End Site
								{
									OFFSET 0.000000 0.000000 0.000000
								}
							}
						}
					}
				}
				JOINT RightShoulder
				{
					OFFSET -0.081759 0.118833 -0.038615
					CHANNELS 3 Zrotation Yrotation Xrotation
					JOINT RightArm
					{
						OFFSET -0.096012 0.032551 -0.009143
						CHANNELS 3 Zrotation Yrotation Xrotation
						JOINT RightForeArm
						{
							OFFSET -0.253742 -0.013329 -0.021401
							CHANNELS 3 Zrotation Yrotation Xrotation
							JOINT RightHand
							{
								OFFSET -0.255298 0.007772 -0.005559
								CHANNELS 3 Zrotation Yrotation Xrotation
								End Site
								{
									OFFSET 0.000000 0.000000 0.000000
								}
							}
						}
					}
				}
			}
		}
	}
}
MOTION
Frames: 6
Frame Time: 0.050000
0.000000 0.954135 0.000000 -2.053790 0.051120 18.534607 3.900009 -1.261949 -19.059463 1.983236 0.084287 -5.559055 2.288945 9.532966 17.447104 0.000000 0.000000 0.000000 2.229447 2.858011 -25.015243 -2.109369 0.160985 -0.783291 9.698187 11.653648 16.032578 0.000000 0.000000 0.000000 1.161699 -1.517955 26.558998 -0.054766 -0.032556 2.235919 0.624870 2.568635 3.857221 7.573871 -2.454068 -19.952016 0.000000 0.000000 0.000000 -7.128945 -35.469930 15.096163 -22.334057 -36.477454 2.741189 25.567292 -36.901646 -6.938216 0.000000 0.000000 0.000000 6.334475 37.584613 16.964634 22.793627 46.941015 5.147467 -27.539769 38.934077 -7.387583 0.000000 0.000000 0.000000 
0.001658 0.953261 0.003090 -2.764775 -1.329493 18.493803 4.776381 -1.082275 -18.288142 1.451956 0.132111 -5.997854 3.167347 10.532503 17.159744 0.000000 0.000000 0.000000 2.567548 2.897319 -24.421660 -0.414646 -0.030332 -1.593022 9.095662 10.099143 16.298387 0.000000 0.000000 0.000000 1.063187 -1.428352 27.330535 0.060604 -0.054515 1.691576 1.703536 3.842840 3.214268 9.192672 -3.244228 -20.071040 0.000000 0.000000 0.000000 -8.297020 -32.734844 13.980921 -24.240854 -37.629201 3.438035 22.371808 -38.481980 -6.132164 0.000000 0.000000 0.000000 4.905935 36.280823 15.992687 23.164279 49.283417 5.827768 -24.211295 37.578664 -5.961484 0.000000 0.000000 0.000000 
0.003368 0.952289 0.006555 -2.168322 -0.242168 17.820279 4.725056 -1.099147 -17.780456 0.228114 0.180397 -5.611728 2.658755 9.808947 16.405362 0.000000 0.000000 0.000000 2.032183 2.647313 -23.390849 -1.044058 0.023464 -1.595419 8.800155 10.421654 15.218614 0.000000 0.000000 0.000000 2.345925 -1.852498 26.335538 -0.586229 0.219627 2.287214 1.546308 3.081245 1.767566 8.742869 -3.633705 -16.211995 0.000000 0.000000 0.000000 -12.512951 -33.193253 15.249289 -23.082403 -36.107963 2.987334 19.813022 -39.408988 -5.325779 0.000000 0.000000 0.000000 7.496095 37.353634 17.289089 19.576765 47.319059 4.104105 -18.744707 36.446586 -4.151914 0.000000 0.000000 0.000000 
0.005203 0.951134 0.010390 -2.321312 -0.992771 17.351478 4.568315 -1.055449 -17.015707 0.413829 0.160925 -5.370472 3.147319 10.315483 15.758060 0.000000 0.000000 0.000000 1.950976 2.556107 -22.494288 -0.646420 -0.053080 -2.520771 9.346016 10.712835 16.177580 0.000000 0.000000 0.000000 2.581837 -1.790256 25.038991 -0.874039 0.349933 3.531695 1.838814 4.159323 1.058516 10.608959 -4.411271 -17.405643 0.000000 0.000000 0.000000 -12.580453 -33.333592 15.092494 -26.162124 -34.173272 3.449132 20.872372 -42.234957 -6.278771 0.000000 0.000000 0.000000 7.929915 38.150261 17.966394 19.074682 47.259182 3.984295 -18.331974 34.163122 -3.749965 0.000000 0.000000 0.000000 
0.006872 0.949919 0.014719 -1.651369 -0.241719 16.250661 3.708291 -1.085306 -15.729218 0.378511 0.159248 -5.280699 2.742620 9.662244 14.950562 0.000000 0.000000 0.000000 1.267375 2.285360 -21.142884 -1.258293 -0.009076 -2.602589 9.591657 11.550129 15.802942 0.000000 0.000000 0.000000 3.482169 -2.055870 24.662949 -0.584187 0.198760 3.426328 1.098723 4.078819 1.106078 11.461729 -5.225928 -15.694325 0.000000 0.000000 0.000000 -14.957653 -33.405693 15.510196 -25.990754 -31.482622 2.955569 20.576619 -46.875473 -7.003596 0.000000 0.000000 0.000000 10.038403 37.427215 18.361690 18.651948 45.507534 3.539977 -16.605993 34.085859 -3.259640 0.000000 0.000000 0.000000 
0.008468 0.949021 0.018945 -1.703665 -0.106822 15.488537 3.374890 -1.078301 -15.152149 0.811244 0.095842 -4.358014 2.801564 9.593404 14.043015 0.000000 0.000000 0.000000 0.813117 2.136173 -20.295186 -0.728823 -0.027326 -2.144040 9.769013 12.333106 15.183021 0.000000 0.000000 0.000000 4.108045 -2.181213 24.034296 -0.796199 0.294134 3.742635 1.395196 5.196828 1.049184 12.447336 -5.543581 -16.586867 0.000000 0.000000 0.000000 -14.059249 -33.226614 14.842191 -28.583063 -29.893608 3.185298 19.004929 -52.896487 -7.503915 0.000000 0.000000 0.000000 10.726504 36.002907 18.018042 19.901522 43.472727 3.687700 -16.203362 36.565198 -3.368742 0.000000 0.000000 0.000000 
